<svg width="35" height="35" viewBox="0 0 35 35" fill="none" xmlns="http://www.w3.org/2000/svg">
    <path d="M25.4603 11.3366C24.4256 9.946 23.0502 8.84552 21.4665 8.14124C19.8827 7.43695 18.1442 7.15261 16.4186 7.31565C14.1156 7.53784 11.9581 8.54222 10.3055 10.1615C8.65292 11.7809 7.60491 13.9174 7.33597 16.2154C7.1743 17.6291 7.31314 19.0609 7.74351 20.4171C8.17387 21.7733 8.88607 23.0233 9.83326 24.085C10.7805 25.1468 11.9414 25.9964 13.2398 26.5782C14.5383 27.1599 15.9449 27.4607 17.3678 27.4608C19.9056 27.46 22.3503 26.5036 24.2149 24.782C26.0795 23.0604 27.2275 20.6998 27.4303 18.1701C27.4373 18.0676 27.423 17.9649 27.3887 17.8681C27.3544 17.7713 27.3007 17.6826 27.2308 17.6075C27.1609 17.5323 27.0762 17.4723 26.9822 17.4311C26.8881 17.3899 26.7866 17.3684 26.6839 17.3679H17.4694M33.7053 17.3527C33.7053 26.384 26.384 33.7053 17.3527 33.7053C8.32134 33.7053 1 26.384 1 17.3527C1 8.32134 8.32134 1 17.3527 1C26.384 1 33.7053 8.32134 33.7053 17.3527Z" stroke="#0E3E3E" stroke-width="1.3" stroke-linecap="round" stroke-linejoin="round"/>
</svg>
