<svg width="27" height="33" viewBox="0 0 27 33" fill="none" xmlns="http://www.w3.org/2000/svg">
    <path d="M24.7678 32H2.23222C1.90542 32 1.592 31.8686 1.36091 31.6348C1.12983 31.4009 1.00001 31.0837 1.00001 30.753V12.731C0.999297 12.5589 1.0344 12.3886 1.10303 12.2312C1.17166 12.0738 1.27229 11.9327 1.39835 11.8173L12.6635 1.33085C12.8903 1.11816 13.1881 1 13.4974 1C13.8066 1 14.1044 1.11816 14.3312 1.33085L25.6017 11.8173C25.7267 11.9336 25.8266 12.0748 25.8952 12.232C25.9637 12.3893 25.9994 12.5591 26 12.731V30.753C26 31.0837 25.8702 31.4009 25.6391 31.6348C25.408 31.8686 25.0946 32 24.7678 32ZM10.6027 23.1798H16.4026C16.5226 23.1805 16.6412 23.2051 16.7518 23.2522C16.8624 23.2993 16.9627 23.368 17.047 23.4544C17.1313 23.5407 17.198 23.643 17.2433 23.7555C17.2886 23.8679 17.3115 23.9882 17.3108 24.1097V32H9.68919V24.1097C9.68849 23.9878 9.7116 23.867 9.7572 23.7542C9.8028 23.6414 9.86998 23.5389 9.95488 23.4525C10.0398 23.3661 10.1407 23.2975 10.2519 23.2507C10.3631 23.2039 10.4823 23.1798 10.6027 23.1798Z" stroke="#052224" stroke-width="2" stroke-linecap="round" stroke-linejoin="round"/>
</svg>
