<svg width="16" height="21" viewBox="0 0 16 21" fill="none" xmlns="http://www.w3.org/2000/svg">
    <path d="M14.3891 16.4894L14.3954 15.8466H14.3891V16.4894ZM15.0853 14.9696L14.5607 15.3411L14.5692 15.3532L14.5783 15.3649L15.0853 14.9696ZM13.479 11.0979L14.1123 10.9868L14.1109 10.9793L13.479 11.0979ZM12.1012 4.43728L12.6083 4.04224L12.6071 4.0406L12.1012 4.43728ZM8.00028 2.40073L8.00174 1.75787L7.99816 1.75788L8.00028 2.40073ZM3.89936 4.43728L3.39387 4.04011L3.39221 4.04224L3.89936 4.43728ZM2.52513 11.0979L1.89322 10.9795L1.89194 10.9868L2.52513 11.0979ZM0.918847 14.9696L1.42235 15.3693L1.4333 15.3555L1.44349 15.3411L0.918847 14.9696ZM1.61502 16.4894V15.8465L1.60282 15.8467L1.61502 16.4894ZM7.36104 2.40074C7.36104 2.75578 7.64886 3.0436 8.0039 3.0436C8.35894 3.0436 8.64676 2.75578 8.64676 2.40074H7.36104ZM8.64676 1.14307C8.64676 0.788026 8.35894 0.500209 8.0039 0.500209C7.64886 0.500209 7.36104 0.788026 7.36104 1.14307H8.64676ZM8.00028 20.0002L8.00162 19.3573H8.00028L8.00028 20.0002ZM14.3829 17.1323C14.6804 17.1351 14.9703 17.049 15.2183 16.8871L14.5157 15.8104C14.4771 15.8356 14.4355 15.847 14.3954 15.8466L14.3829 17.1323ZM15.2183 16.8871C15.466 16.7255 15.6604 16.4961 15.7827 16.2291L14.6138 15.6937C14.59 15.7457 14.5546 15.785 14.5157 15.8104L15.2183 16.8871ZM15.7827 16.2291C15.9049 15.9623 15.9513 15.6665 15.9182 15.3756L14.6407 15.521C14.6476 15.5813 14.6377 15.6415 14.6138 15.6937L15.7827 16.2291ZM15.9182 15.3756C15.8851 15.0845 15.7732 14.8064 15.5923 14.5743L14.5783 15.3649C14.611 15.4068 14.6339 15.4608 14.6407 15.521L15.9182 15.3756ZM15.61 14.5981C14.855 13.532 14.342 12.2967 14.1122 10.9868L12.8458 11.209C13.1081 12.7036 13.6941 14.1173 14.5607 15.3411L15.61 14.5981ZM14.1109 10.9793C14.012 10.4528 13.9697 9.90891 13.9404 9.33865C13.9118 8.78242 13.895 8.1756 13.8439 7.59304C13.7397 6.40813 13.4847 5.16729 12.6083 4.04224L11.594 4.83233C12.2478 5.67164 12.4678 6.62123 12.5631 7.7056C12.6116 8.25767 12.6256 8.8052 12.6564 9.40462C12.6865 9.99002 12.7321 10.6031 12.8472 11.2165L14.1109 10.9793ZM12.6071 4.0406C12.0511 3.33165 11.3506 2.75781 10.5542 2.36229L9.98229 3.51383C10.6038 3.82246 11.1551 4.27258 11.5953 4.83397L12.6071 4.0406ZM10.5542 2.36229C9.75759 1.96671 8.88589 1.7599 8.00174 1.75788L7.99881 3.04359C8.68374 3.04515 9.36094 3.20526 9.98229 3.51383L10.5542 2.36229ZM7.99816 1.75788C7.11435 1.76079 6.24313 1.96798 5.44688 2.36341L6.01875 3.51494C6.64019 3.20633 7.31738 3.04584 8.00239 3.04359L7.99816 1.75788ZM5.44688 2.36341C4.65077 2.75876 3.95027 3.33197 3.39387 4.04012L4.40485 4.83445C4.84563 4.27346 5.39717 3.82362 6.01875 3.51494L5.44688 2.36341ZM3.39221 4.04224C2.51573 5.16746 2.26166 6.40754 2.15846 7.5921C2.10773 8.17433 2.09139 8.7812 2.06315 9.33743C2.03419 9.90777 1.99209 10.4521 1.89326 10.9795L3.15699 11.2163C3.27209 10.6019 3.31747 9.98831 3.34721 9.40263C3.37766 8.80286 3.39124 8.25562 3.43932 7.70369C3.53374 6.61993 3.75286 5.67148 4.40652 4.83233L3.39221 4.04224ZM1.89194 10.9868C1.66212 12.2967 1.14912 13.532 0.394203 14.5981L1.44349 15.3411C2.31011 14.1173 2.89609 12.7036 3.15831 11.209L1.89194 10.9868ZM0.415348 14.5699C0.231365 14.8017 0.11713 15.0807 0.0825799 15.3732L1.35941 15.524C1.3665 15.464 1.3896 15.4106 1.42235 15.3693L0.415348 14.5699ZM0.0825799 15.3732C0.0480334 15.6656 0.0940998 15.9632 0.216963 16.2314L1.38588 15.696C1.36209 15.644 1.35232 15.584 1.35941 15.524L0.0825799 15.3732ZM0.216963 16.2314C0.339904 16.4998 0.535902 16.7301 0.785717 16.8915L1.48353 15.8117C1.44488 15.7867 1.40959 15.7477 1.38588 15.696L0.216963 16.2314ZM0.785717 16.8915C1.03588 17.0532 1.32807 17.1378 1.62721 17.1322L1.60282 15.8467C1.56312 15.8474 1.52183 15.8364 1.48353 15.8117L0.785717 16.8915ZM1.61502 17.1323H14.3891V15.8466H1.61502V17.1323ZM8.64676 2.40074V1.14307H7.36104V2.40074H8.64676ZM9.19214 18.0789C9.19246 18.2509 9.16033 18.4207 9.09823 18.5782L10.2944 19.0497C10.4163 18.7403 10.4785 18.4096 10.4779 18.0764L9.19214 18.0789ZM9.09823 18.5782C9.03616 18.7357 8.94576 18.8769 8.83361 18.9944L9.76375 19.882C9.99253 19.6423 10.1724 19.3592 10.2944 19.0497L9.09823 18.5782ZM8.83361 18.9944C8.72152 19.1118 8.59006 19.2032 8.4476 19.2649L8.95831 20.4448C9.26148 20.3136 9.53491 20.1218 9.76375 19.882L8.83361 18.9944ZM8.4476 19.2649C8.3052 19.3265 8.15374 19.3577 8.00162 19.3573L7.99895 20.6431C8.32897 20.6437 8.65509 20.5761 8.95831 20.4448L8.4476 19.2649ZM8.00028 19.3573C7.84834 19.3573 7.69711 19.326 7.55497 19.2642L7.04245 20.4434C7.3451 20.5749 7.67069 20.6431 8.00028 20.6431L8.00028 19.3573ZM7.55497 19.2642C7.41276 19.2024 7.28156 19.1109 7.16972 18.9935L6.2387 19.8802C6.46703 20.1199 6.73988 20.3118 7.04245 20.4434L7.55497 19.2642ZM7.16972 18.9935C7.05783 18.876 6.96765 18.735 6.90572 18.5776L5.70935 19.0485C5.83104 19.3577 6.01043 19.6405 6.2387 19.8802L7.16972 18.9935ZM6.90572 18.5776C6.84378 18.4203 6.81173 18.2507 6.81205 18.0789L5.52634 18.0764C5.52571 18.4092 5.58768 18.7394 5.70935 19.0485L6.90572 18.5776Z" fill="#093030"/>
</svg>
